# xmcd
#
# Track frame offsets:
#	150
#	20142
#	41944
#	67831
#	92663
#	109375
#	133307
#	149404
#	175186
#	194108
#	216200
#	232617
#	250464
#	270616
#	292393
#	312800
#
# Disc length: 4443 seconds
#
# Revision: 0
# Processed by: cddbd v1.5.2PL0 Copyright (c) Steve Scherf et al.
# Submitted via: EasyCDDAExtractor 2010.4.0.0
#
DISCID=03115910
DTITLE=Various Artist - 2010 Steppers Connection Vol. 7
DYEAR=1900
DGENRE=R&B
TTITLE0=Ne-Yo - Champagne Life
TTITLE1=Anime Etro - Diablo
TTITLE2=Klangart - Cloud Officers
TTITLE3=Smokey Robinson - Love Bath
TTITLE4=Bobby Hutton - Let Me Be The One
TTITLE5=Cee Lo w/Timberland - I'll Be Around
TTITLE6=Shapro - Olivia (Rmx)
TTITLE7=Mono Deluxe - Lemon Squash
TTITLE8=Eric Benet' - Sometimes I Cry
TTITLE9=Gerald Levert - Can I Stay
TTITLE10=Bruce Hawkes - I Wanna Be Mellow
TTITLE11=Erica Lou - Time With you
TTITLE12=Randy Muller - Easy Luv
TTITLE13=Flash Baxx - Sand Bank
TTITLE14=Mark Down - Right Man
TTITLE15=Dwelle - My People
EXTD=
EXTT0=
EXTT1=
EXTT2=
EXTT3=
EXTT4=
EXTT5=
EXTT6=
EXTT7=
EXTT8=
EXTT9=
EXTT10=
EXTT11=
EXTT12=
EXTT13=
EXTT14=
EXTT15=
PLAYORDER=
